<?xml version="1.0"?>
<svg xmlns="http://www.w3.org/2000/svg" id="Layer_1" data-name="Layer 1" viewBox="0 0 512 512" width="512" height="512"><title>Rupees Hand</title><path d="M342.58,319.15a36.912,36.912,0,0,1,12.1,21.95l9.14-4.82,54.97-29.66,6.6-3.56A30.026,30.026,0,0,1,465.37,314L335.81,402.95a90.714,90.714,0,0,1-56.42,7.97L204.5,397.13a27.84,27.84,0,0,0-20.38,2.7l-40.56,25.64-28.33-92.94.24-.07a48.688,48.688,0,0,0,23.51-11.5l12.41-11.05a82.881,82.881,0,0,1,85.95-8.39l5.14,2.48a59.225,59.225,0,0,0,25.79,5.91H318.1A36.923,36.923,0,0,1,342.58,319.15Z" style="fill:#e48e66"/><path d="M418.75,306.55l.04.07-54.97,29.66-9.14,4.82a36.912,36.912,0,0,0-12.1-21.95l35.33-19.04,8.99-4.84C398.01,289.64,412.59,295.72,418.75,306.55Z" style="fill:#af593c"/><path d="M377.47,299.3l.44.81-35.33,19.04a36.923,36.923,0,0,0-24.48-9.24H307.05l29.39-15.98A33.959,33.959,0,0,1,377.47,299.3Z" style="fill:#af593c"/><circle cx="256" cy="133.66" r="90" style="fill:#6fe3ff"/><path d="M143.56,425.47l13.07,42.87h-90l-20-164h60l8.6,28.19Zm-24.64,14.18a12,12,0,1,0-12,12A12,12,0,0,0,118.92,439.65Z" style="fill:#f8ec7d"/><path d="M422.541,297.779l-1.912,1.032c-9.074-10.769-24.593-14.9-36.441-8.894l-.133.069-4.966,2.676a40,40,0,0,0-45.583-3.922L305.524,304H268.27a53.6,53.6,0,0,1-23.182-5.358l-5.135-2.5a88.527,88.527,0,0,0-92.172,8.987c-.131.1-.258.2-.381.306l-12.407,11.045a42.665,42.665,0,0,1-15.692,8.849l-6.932-22.908A6.157,6.157,0,0,0,106.63,298h-60a6.275,6.275,0,0,0-5.956,6.981l20,163.873A5.889,5.889,0,0,0,66.63,474h90a5.764,5.764,0,0,0,5.739-7.5l-11.735-38.451,36.548-23.082a21.751,21.751,0,0,1,15.857-2.033c.124.031.249.064.374.086l74.908,13.8a97.338,97.338,0,0,0,60.152-8.5,5.9,5.9,0,0,0,.733-.429l129.56-88.95a6,6,0,0,0,1.745-8.04A35.974,35.974,0,0,0,422.541,297.779Zm-32.868,2.812c6.48-3.241,14.59-.711,19.958,4.154l-48.609,26.228-2.463,1.3a43.093,43.093,0,0,0-6.317-11.512Zm-50.367-1.39c.048-.026.1-.053.141-.08a28,28,0,0,1,27.829-.094L343.205,312a43.008,43.008,0,0,0-14.852-6.839ZM71.943,462,53.406,310h48.781l35.634,117.049v-.084L148.528,462Zm260.828-64.241a85.269,85.269,0,0,1-52.294,7.261l-74.711-13.757a33.7,33.7,0,0,0-24.576,3.331c-.094.052-.185.107-.276.165l-33.909,21.435-24.2-79.379a54.685,54.685,0,0,0,20.166-11.374l12.222-10.882a76.585,76.585,0,0,1,79.54-7.636l5.135,2.523A65.648,65.648,0,0,0,268.27,316H318.1a30.966,30.966,0,0,1,30.4,24.676l-35.58-1.619a216.91,216.91,0,0,0-39.382,1.805,6,6,0,1,0,1.64,11.883,204.473,204.473,0,0,1,37.2-1.71l42.5,1.919c.091,0,.181.006.271.006a6,6,0,0,0,6-6c0-.817-.032-1.633-.078-2.448l5.6-2.951L428.24,308.34a23.994,23.994,0,0,1,28.533,4.284Z" style="fill:#63316d"/><path d="M106.92,421.65a18,18,0,1,0,18,18A18.021,18.021,0,0,0,106.92,421.65Zm0,24a6,6,0,1,1,6-6A6.007,6.007,0,0,1,106.92,445.65Z" style="fill:#63316d"/><path d="M352,133.66a96,96,0,1,0-96,96A96.109,96.109,0,0,0,352,133.66Zm-180,0a84,84,0,1,1,84,84A84.1,84.1,0,0,1,172,133.66Z" style="fill:#63316d"/><path d="M271.059,193.34a6.011,6.011,0,0,0,4.122-10.382L236.086,146h4.944a35.989,35.989,0,0,0,35.525-30H291a6,6,0,0,0,0-12H276.551a35.967,35.967,0,0,0-8.7-18H291a6,6,0,0,0,0-12H221a6,6,0,0,0,0,12h20.03A24.048,24.048,0,0,1,264.3,104H221a6,6,0,0,0,0,12h43.306a24.012,24.012,0,0,1-23.276,18H221a6.022,6.022,0,0,0-4.121,10.391l50.06,47.305A5.984,5.984,0,0,0,271.059,193.34Z" style="fill:#63316d"/></svg>
