<?xml version="1.0"?>
<svg xmlns="http://www.w3.org/2000/svg" id="Layer_1" data-name="Layer 1" viewBox="0 0 512 512" width="512" height="512"><title>Wallet Rupees</title><g id="_Group_" data-name=" Group "><path d="M386.79,138.36h88.36v83.3H414.72a59.61,59.61,0,0,0,0,119.22h60.43v83.3H207.62A89.2,89.2,0,0,0,94.56,304.79V138.36H386.79Z" style="fill:#00acea"/><path d="M475.15,221.66V340.88H414.72a59.61,59.61,0,0,1,0-119.22Zm-50.09,59.96a20.23,20.23,0,1,0-20.23,20.23A20.227,20.227,0,0,0,425.06,281.62Z" style="fill:#fedb41"/><circle cx="404.83" cy="281.62" r="20.23" style="fill:#f4b844"/><polygon points="400.83 37.6 400.83 138.36 386.79 138.36 315.61 67.81 400.83 37.6" style="fill:#fedb41"/><polygon points="315.61 67.81 386.79 138.36 178.36 138.36 211.93 104.79 282.11 34.61 315.61 67.81" style="fill:#00efd1"/><polygon points="211.93 104.79 178.36 138.36 95.73 138.36 211.93 104.79" style="fill:#fedb41"/><path d="M215.17,388.23a89.207,89.207,0,1,1-89.16-89.15A88.686,88.686,0,0,1,215.17,388.23Z" style="fill:#00efd1"/><path d="M475.15,130H409V37.6a8.118,8.118,0,0,0-10.8-7.54L317.693,58.592l-29.94-29.664a8.008,8.008,0,0,0-11.295.025L207.733,97.5,94.6,130H94.56c-4.418,0-7.56,3.941-7.56,8.36V299.445c-17,7.128-30.047,18.411-40.26,32.911A97.032,97.032,0,1,0,212.661,432H475.15a7.721,7.721,0,0,0,7.85-7.82V138.36C483,133.941,479.568,130,475.15,130ZM393,48.924V130h-2.917l-59.71-59.084ZM282.136,45.538,367.354,130H197.674Zm-97.826,75.2L175.047,130h-22.8ZM200.3,420.944l0,.008a81.187,81.187,0,1,1,6.87-32.722A80.385,80.385,0,0,1,200.3,420.944ZM219.089,416A97.109,97.109,0,0,0,126.23,291.035a91.615,91.615,0,0,0-23.23,2.92V146H467v68H414.72a67.5,67.5,0,1,0,0,135H467v67ZM467,230V333H414.72a51.72,51.72,0,0,1-51.61-51.67A51.376,51.376,0,0,1,414.72,230Z" style="fill:#083863"/><path d="M376.6,281.62a28.23,28.23,0,1,0,28.23-28.23A28.262,28.262,0,0,0,376.6,281.62Zm40.46,0a12.23,12.23,0,1,1-12.23-12.23A12.244,12.244,0,0,1,417.06,281.62Z" style="fill:#083863"/><path d="M155.41,352a8,8,0,0,0,0-16H94.59a8,8,0,0,0,0,16H112a17.955,17.955,0,0,1,16.2,10H94.59a8,8,0,0,0,0,16h33.626a16.879,16.879,0,0,1-3.423,5.248A18.43,18.43,0,0,1,112,389H94.59A7.755,7.755,0,0,0,89.1,402.47l43.5,41.043a8.019,8.019,0,0,0,10.988-11.681L114.6,404.446a34.1,34.1,0,0,0,21.5-10.113A34.8,34.8,0,0,0,145.146,378H155.41a8,8,0,0,0,0-16H145.133a40.682,40.682,0,0,0-4.259-10Z" style="fill:#083863"/></g></svg>
